<svg xmlns="http://www.w3.org/2000/svg" aria-hidden="true" style="position:absolute;width:0;height:0;overflow:hidden">
  <defs>
    <symbol id="icon-company-logo" viewBox="0 0 81 32">
      <path fill="#764191" d="M15.228 7.528c.292-.034.631.032.912.117a2.403 2.403 0 0 1 1.462 1.202c.319.608.38 1.319.17 1.973-.267.806-.841 1.212-1.557 1.584l.008 2.351c.512.156 1.01.333 1.474.602 1.068.619 1.798 1.663 2.105 2.85a4.852 4.852 0 0 1-.512 3.679c-.598 1.006-1.55 1.749-2.691 2.034-1.49.372-2.754-.031-4.035-.792a104.21 104.21 0 0 0-1.677 1.836c.247.582.329 1.193.165 1.812a2.365 2.365 0 0 1-1.126 1.429 2.52 2.52 0 0 1-1.965.215c-.661-.189-1.216-.598-1.539-1.213-.318-.605-.345-1.314-.139-1.959.234-.734.712-1.186 1.383-1.521.723-.283 1.32-.19 2.026.065.587-.618 1.14-1.268 1.734-1.881-.652-1.279-.864-2.369-.524-3.778-.738-.345-1.45-.746-2.189-1.091-.395.411-.878.693-1.444.788a2.641 2.641 0 0 1-1.944-.467 2.478 2.478 0 0 1-1.001-1.681c-.091-.653.081-1.373.499-1.889.431-.532 1.101-.853 1.777-.924a2.51 2.51 0 0 1 1.842.563c.658.551.848 1.237.928 2.053.7.429 1.502.76 2.232 1.143.949-1.122 1.643-1.476 3.027-1.903l.001-2.334a3.233 3.233 0 0 1-.711-.378 2.5 2.5 0 0 1-.993-1.685 2.528 2.528 0 0 1 .526-1.874c.457-.573 1.068-.834 1.777-.928zm3.051 11.608a2.932 2.932 0 1 0-5.84.514 2.932 2.932 0 0 0 5.84-.514zM72.986 15.491c.477.001.954.007 1.432.019l-.003 2.522c.367-.286.768-.499 1.233-.569a2.36 2.36 0 0 1 1.777.452c.612.463.934 1.242 1.026 1.986.118.945-.104 1.853-.687 2.606-.387.373-.851.634-1.386.722-.785.129-1.408-.146-2.02-.603l-.003.551-1.37-.003-.001-7.685zm2.453 3.305c-.425.141-.721.343-.929.753a1.886 1.886 0 0 0-.066 1.491c.137.363.394.677.753.838.26.118.505.121.785.105.444-.168.743-.383.944-.828a1.89 1.89 0 0 0 .008-1.492 1.426 1.426 0 0 0-.793-.791 1.47 1.47 0 0 0-.702-.075zM31.987 15.476c.84 2.588 1.914 5.105 2.733 7.7l-1.548.001c-.181-.554-.356-1.181-.633-1.693-.181-.077-.395-.051-.588-.049-.746.007-1.493.005-2.239-.008-.234.572-.423 1.16-.609 1.749l-1.576-.001c.823-2.583 1.804-5.133 2.693-7.696.588.013 1.179-.001 1.767-.003zm-.882 1.913c-.326.926-.63 1.865-.986 2.78l1.133-.001.88-.01c-.124-.348-.842-2.615-1.027-2.77zM64.614 15.493l1.48.009c-.02 1.784-.004 3.57-.005 5.354-.001.736.074 1.541-.008 2.268L66 23.18h-1.387l-.003-3.294c-1.109-.031-2.226-.003-3.335-.002l.001 3.298-1.489-.003.006-7.683 1.483.003.001 3.141h3.34l-.002-3.147zM66.984 17.622c.491.014.984.009 1.475.012-.006.785-.13 2.954.06 3.603.075.256.225.491.467.615.364.187.735.079 1.097-.048.16-.179.298-.347.378-.579.259-.757.121-2.7.117-3.601.468.013.937.003 1.405 0-.011.539-.002 1.081-.003 1.62l.007 3.931c-.46.007-.92.003-1.379-.01l-.042-.05a1.334 1.334 0 0 0-.012-.328c-.431.187-.815.47-1.305.48-.568.011-1.185-.165-1.593-.574-.309-.309-.498-.725-.595-1.148-.209-.908-.086-2.92-.076-3.925zM47.093 17.467c.734-.057 1.499-.006 2.092.489.416.346.55.762.595 1.278l-1.326-.001c-.076-.142-.153-.306-.272-.417a1.017 1.017 0 0 0-.726-.254c-.201.011-.458.091-.583.261-.076.103-.118.21-.089.339.151.68 1.88.596 2.431.956.35.23.619.641.697 1.051a1.54 1.54 0 0 1-.275 1.196c-.423.583-1.074.792-1.751.896-.627.038-1.355-.131-1.857-.513-.471-.359-.64-.798-.704-1.365.447.001.894-.003 1.341-.012.026.084.055.165.098.243.195.359.583.439.943.545.238-.055.56-.116.729-.308a.537.537 0 0 0 .095-.465c-.165-.568-1.822-.635-2.397-.989-.34-.21-.591-.515-.681-.909-.082-.357-.051-.758.15-1.071.362-.566.863-.799 1.493-.949zM56.018 17.466c.418-.034.827-.032 1.234.079.47.127.969.39 1.206.835.114.213.202.597.125.834-.381.082-.846.027-1.237.022-.058-.194-.106-.343-.264-.477a.958.958 0 0 0-.716-.217c-.202.021-.462.12-.574.301-.067.108-.095.219-.053.343.244.72 1.709.549 2.278.874.362.207.666.572.769.98a1.64 1.64 0 0 1-.215 1.301c-.377.562-.977.774-1.609.897-.621.077-1.34-.055-1.859-.413-.533-.367-.693-.828-.813-1.431l1.33-.01c.081.203.154.362.327.503.23.188.502.273.798.234.23-.031.456-.136.593-.328a.508.508 0 0 0 .092-.432c-.166-.591-1.635-.555-2.217-.868a1.679 1.679 0 0 1-.83-.998 1.358 1.358 0 0 1 .132-1.078c.322-.546.912-.813 1.503-.949zM39.649 16.097c.441.015.886.006 1.328.008-.005.498.002.997.022 1.495l1.31.001-.003 1.142h-1.248c.001.719-.164 2.572.166 3.128.258.203.772.127 1.085.124l-.004.946c.003.098.002.147-.047.232a1.24 1.24 0 0 1-.546.104c-.507.004-1.207-.087-1.571-.467-.732-.762-.498-3.004-.495-4.067l-.845.001.003-1.144.842.006.004-1.507zM51.037 16.091l1.303.007c-.01.499.011 1.001.02 1.5l1.331-.003-.002 1.147-1.253-.001c.015.684-.152 2.595.158 3.112.333.199.75.146 1.124.145-.004.33.002.66.003.99l-.016.125c-.129.137-.328.131-.503.135-.535.013-1.275-.072-1.663-.478-.725-.759-.499-2.969-.493-4.029h-.891c-.011-.38-.007-.761-.01-1.14l.888.005.002-1.516zM22.922 15.237c.069-.003.135-.004.203.005.213.031.423.134.54.321.124.198.142.463.159.693.084 1.138.022 2.321.021 3.463 0 .932.103 2.197-.07 3.094-.054.282-.242.417-.466.57-.085.01-.175.022-.261.017a.71.71 0 0 1-.499-.243c-.123-.145-.119-.437-.13-.619-.078-1.309-.012-2.659-.011-3.972.001-.746-.102-2.174.055-2.839.056-.238.271-.363.458-.49zM38.034 17.58l.187-.002c.222.248.112 1.034.105 1.36-.469-.005-.913-.024-1.28.317-.689.639-.457 2.982-.464 3.922-.37-.003-1.089.132-1.372-.103l-.015-.233c.007-1.743-.037-3.484-.026-5.226.447.014.896.004 1.344.002l-.016.769c.083-.119.165-.247.262-.355.339-.383.799-.417 1.274-.451zM43.123 17.603l1.406.001.003 5.577-1.422-.002.013-5.575zM20.959 17.065c.231.043.435.129.57.33.207.309.213 3.339.109 3.771-.057.236-.261.352-.455.465-.222-.013-.514-.033-.662-.226-.221-.286-.202-3.506-.077-3.91.073-.235.314-.334.516-.431zM43.733 15.305a.777.777 0 1 1 .182 1.544.777.777 0 0 1-.182-1.544z" style="fill:var(--color1, #764191)"/>
    </symbol>
    <symbol id="icon-company-logo-short" viewBox="0 0 73 32">
      <path fill="#764191" d="M18.932 9.969c.363-.042.784.039 1.134.146a2.99 2.99 0 0 1 1.818 1.495c.397.756.473 1.64.211 2.453-.332 1.002-1.046 1.506-1.936 1.97l.01 2.923c.636.194 1.255.414 1.833.748 1.328.77 2.236 2.067 2.617 3.544a6.04 6.04 0 0 1-.636 4.574c-.743 1.251-1.927 2.175-3.345 2.529-1.853.463-3.424-.038-5.016-.985a128.66 128.66 0 0 0-2.085 2.282c.307.724.409 1.483.205 2.253-.199.752-.726 1.396-1.4 1.777-.755.427-1.616.505-2.443.268-.822-.235-1.512-.744-1.914-1.508-.395-.752-.429-1.633-.172-2.436.291-.912.885-1.474 1.72-1.891.899-.351 1.641-.236 2.519.08.73-.768 1.418-1.576 2.155-2.338-.811-1.59-1.074-2.945-.652-4.697-.918-.428-1.803-.927-2.721-1.356-.491.511-1.091.861-1.796.98-.84.141-1.726-.088-2.416-.581a3.081 3.081 0 0 1-1.245-2.09c-.113-.812.101-1.707.621-2.348.536-.661 1.369-1.061 2.209-1.149.826-.08 1.65.172 2.29.7.818.685 1.055 1.537 1.154 2.552.871.534 1.867.945 2.774 1.421 1.18-1.395 2.043-1.835 3.764-2.366l.001-2.901a3.98 3.98 0 0 1-.883-.47 3.11 3.11 0 0 1-1.235-2.095 3.142 3.142 0 0 1 .654-2.33c.568-.713 1.328-1.037 2.209-1.154zm3.794 14.432a3.643 3.643 0 1 0-7.257.637 3.643 3.643 0 0 0 7.256-.637zM39.768 19.85c1.044 3.217 2.38 6.347 3.398 9.573l-1.924.002c-.225-.689-.443-1.468-.787-2.105-.225-.096-.491-.064-.731-.061-.928.009-1.856.007-2.784-.009-.291.711-.526 1.442-.757 2.174l-1.959-.002c1.023-3.212 2.243-6.382 3.348-9.568.731.016 1.466-.001 2.197-.004zm-1.097 2.379c-.405 1.152-.783 2.319-1.226 3.456l1.409-.001 1.095-.012c-.154-.433-1.047-3.251-1.277-3.443zM58.548 22.326c.912-.071 1.863-.007 2.601.608.517.43.684.947.74 1.589l-1.649-.002c-.095-.176-.19-.381-.339-.519a1.266 1.266 0 0 0-.903-.316c-.25.014-.569.113-.724.325-.094.129-.146.261-.11.421.187.846 2.337.741 3.022 1.189.435.285.77.797.867 1.307a1.918 1.918 0 0 1-.342 1.487c-.525.724-1.335.985-2.177 1.114-.78.047-1.684-.162-2.309-.637-.585-.446-.796-.993-.876-1.697a77.26 77.26 0 0 0 1.667-.015c.033.105.069.206.121.303.242.446.725.546 1.173.677.296-.068.696-.144.906-.383a.667.667 0 0 0 .118-.579c-.205-.707-2.265-.79-2.98-1.23-.423-.261-.734-.64-.847-1.13-.102-.444-.063-.943.187-1.332.451-.704 1.073-.993 1.857-1.18zM69.643 22.324c.519-.042 1.028-.039 1.534.098.584.158 1.204.484 1.5 1.038.142.265.251.742.156 1.037-.473.102-1.051.033-1.537.028-.072-.241-.132-.426-.328-.593a1.187 1.187 0 0 0-.89-.27c-.251.026-.574.149-.714.374-.084.134-.118.272-.065.426.304.895 2.124.682 2.832 1.086.451.258.828.711.956 1.218a2.042 2.042 0 0 1-.267 1.618c-.469.699-1.214.962-2.001 1.115-.772.096-1.666-.069-2.311-.514-.663-.457-.862-1.03-1.01-1.779l1.653-.012c.1.253.192.45.406.625.285.234.624.34.992.291.285-.038.566-.169.737-.408a.633.633 0 0 0 .114-.538c-.207-.735-2.032-.689-2.757-1.08-.489-.264-.877-.702-1.032-1.241a1.687 1.687 0 0 1 .164-1.34c.4-.679 1.133-1.01 1.869-1.18zM49.293 20.622c.549.019 1.102.007 1.651.01-.006.62.003 1.24.027 1.859l1.629.001-.004 1.42-1.551-.001c.001.893-.204 3.198.206 3.888.32.252.959.158 1.348.154l-.006 1.176c.004.121.003.183-.059.288-.217.104-.439.127-.678.129-.63.005-1.5-.108-1.953-.581-.91-.947-.619-3.735-.615-5.057l-1.051.002.003-1.423 1.047.007.005-1.873zM63.452 20.614l1.62.009c-.012.621.013 1.244.025 1.865l1.655-.003-.002 1.426-1.558-.001c.019.851-.189 3.226.196 3.869.414.247.933.181 1.398.18-.006.41.002.82.004 1.231l-.02.155c-.16.17-.407.162-.626.168-.665.016-1.585-.089-2.067-.595-.901-.943-.62-3.691-.612-5.009l-1.108.001c-.014-.472-.009-.946-.012-1.418l1.104.006.003-1.884zM28.497 19.553c.085-.004.168-.005.253.007.265.038.526.166.672.399.155.247.176.575.197.861.105 1.414.027 2.886.027 4.305 0 1.159.128 2.731-.087 3.847-.068.351-.3.519-.579.709-.106.013-.217.027-.324.021a.874.874 0 0 1-.62-.302c-.153-.181-.148-.543-.162-.77-.097-1.627-.015-3.306-.014-4.938.001-.927-.127-2.702.068-3.53.07-.296.337-.451.57-.609zM47.285 22.466l.233-.003c.276.308.139 1.286.13 1.691-.583-.006-1.135-.029-1.591.394-.857.795-.568 3.708-.577 4.876-.459-.004-1.354.164-1.705-.129l-.018-.29c.008-2.166-.046-4.331-.032-6.497.556.017 1.114.005 1.671.003l-.02.957c.103-.148.206-.307.325-.442.422-.476.994-.519 1.584-.561zM53.612 22.495l1.748.001.004 6.933-1.768-.003.016-6.931zM26.057 21.825c.287.053.541.161.708.41.258.384.265 4.151.136 4.689-.071.294-.325.437-.566.579-.276-.017-.639-.041-.823-.28-.274-.356-.252-4.359-.095-4.861.091-.292.391-.415.641-.536zM54.37 19.638a.967.967 0 1 1 .225 1.92.967.967 0 0 1-.225-1.92z" style="fill:var(--color1, #764191)"/>
    </symbol>
    <symbol id="icon-instagram" viewBox="0 0 31 32">
      <path fill="#fff" d="M15.608 6.705c3.128 0 3.498.014 4.728.069 1.143.05 1.76.242 2.172.402a3.63 3.63 0 0 1 1.344.874c.412.412.663.8.878 1.345.16.412.352 1.033.402 2.172.055 1.235.069 1.605.069 4.728s-.014 3.498-.069 4.728c-.05 1.143-.242 1.76-.402 2.172a3.617 3.617 0 0 1-.874 1.344c-.412.412-.8.663-1.344.878-.412.16-1.034.352-2.172.402-1.235.055-1.605.069-4.728.069s-3.498-.014-4.728-.069c-1.143-.05-1.76-.242-2.172-.402a3.629 3.629 0 0 1-1.345-.874 3.667 3.667 0 0 1-.878-1.344c-.16-.412-.352-1.034-.402-2.172-.055-1.235-.069-1.605-.069-4.728s.014-3.498.069-4.728c.05-1.143.242-1.76.402-2.172.211-.544.467-.937.874-1.345.412-.412.8-.663 1.345-.878.412-.16 1.033-.352 2.172-.402 1.23-.055 1.601-.069 4.728-.069h.001zm0-2.108c-3.178 0-3.575.014-4.824.069-1.244.055-2.099.256-2.839.544a5.696 5.696 0 0 0-2.076 1.353 5.728 5.728 0 0 0-1.353 2.071c-.288.746-.489 1.596-.544 2.839-.055 1.253-.069 1.651-.069 4.829s.014 3.575.069 4.824c.055 1.244.256 2.099.544 2.839a5.709 5.709 0 0 0 1.353 2.076A5.721 5.721 0 0 0 7.94 27.39c.746.288 1.596.489 2.839.544 1.248.055 1.646.069 4.824.069s3.576-.014 4.824-.069c1.244-.055 2.099-.256 2.839-.544.768-.297 1.422-.699 2.071-1.349s1.052-1.303 1.349-2.071c.288-.746.489-1.596.544-2.839.055-1.248.069-1.646.069-4.824s-.014-3.575-.069-4.824c-.055-1.244-.256-2.099-.544-2.839a5.483 5.483 0 0 0-1.34-2.081 5.721 5.721 0 0 0-2.071-1.349c-.746-.288-1.596-.489-2.839-.544-1.253-.059-1.651-.073-4.829-.073l-.001.001z" style="fill:var(--color2, #fff)"/>
      <path fill="#fff" d="M15.608 10.289a6.014 6.014 0 1 0 6.013 6.013 6.014 6.014 0 0 0-6.013-6.013zm0 9.914a3.9 3.9 0 1 1 0-7.8 3.9 3.9 0 0 1 0 7.8zM23.261 10.052a1.404 1.404 0 1 1-2.808 0 1.404 1.404 0 0 1 2.808 0z" style="fill:var(--color2, #fff)"/>
    </symbol>
    <symbol id="icon-facebook" viewBox="0 0 31 32">
      <path fill="#fff" d="M28.618 16.699c0-7.228-5.824-13.088-13.008-13.088S2.602 9.471 2.602 16.699c0 6.532 4.757 11.947 10.976 12.929v-9.146h-3.303v-3.783h3.303v-2.883c0-3.28 1.942-5.092 4.913-5.092 1.423 0 2.912.256 2.912.256v3.221h-1.64c-1.616 0-2.12 1.009-2.12 2.044V16.7h3.608l-.577 3.783h-3.031v9.146c6.219-.982 10.976-6.396 10.976-12.929z" style="fill:var(--color2, #fff)"/>
    </symbol>
    <symbol id="icon-youtube" viewBox="0 0 31 32">
      <path fill="#fff" d="M28.089 10.063a3.258 3.258 0 0 0-2.292-2.297c-2.037-.559-10.187-.568-10.187-.568s-8.148-.009-10.187.526a3.326 3.326 0 0 0-2.297 2.313c-.537 2.037-.542 6.262-.542 6.262s-.005 4.246.528 6.262a3.26 3.26 0 0 0 2.293 2.296c2.058.559 10.185.568 10.185.568s8.15.009 10.187-.524a3.269 3.269 0 0 0 2.299-2.293c.539-2.036.542-6.259.542-6.259s.026-4.247-.529-6.284zM13.003 20.212l.006-7.805 6.773 3.909-6.78 3.896z" style="fill:var(--color2, #fff)"/>
    </symbol>
  </defs>
</svg>
