<svg width="143" height="41" viewBox="0 0 143 41" fill="none" xmlns="http://www.w3.org/2000/svg">
<path d="M21.1875 0.183594C21.7477 0.119216 22.397 0.244772 22.9365 0.40918C24.1574 0.78114 25.1486 1.5779 25.7373 2.71484C26.3491 3.88039 26.467 5.24313 26.0635 6.49609C25.5511 8.04103 24.4523 8.8172 23.0801 9.53125L23.0957 14.0381C24.0765 14.3371 25.0304 14.6762 25.9209 15.1924C27.9678 16.3789 29.3681 18.3797 29.9551 20.6562C30.5755 23.0434 30.2223 25.5803 28.9736 27.708C27.8284 29.6364 26.0025 31.0608 23.8164 31.6064C20.9606 32.3201 18.5385 31.5471 16.084 30.0879C14.9991 31.248 13.9271 32.4209 12.8691 33.6064C13.3422 34.7222 13.4983 35.8934 13.1846 37.0791C12.8779 38.2381 12.0653 39.2313 11.0264 39.8184C9.86223 40.4771 8.536 40.5967 7.25977 40.2314C5.99322 39.8689 4.9286 39.0842 4.30957 37.9053C3.70037 36.7461 3.64892 35.3879 4.04395 34.1504C4.49334 32.744 5.40847 31.8772 6.69531 31.2344C8.08053 30.6925 9.22595 30.8713 10.5781 31.3584C11.7039 30.1737 12.764 28.9292 13.9014 27.7549C12.6512 25.3033 12.2465 23.2151 12.8965 20.5137C11.4814 19.853 10.1171 19.0837 8.70117 18.4219C7.94447 19.2096 7.01887 19.7499 5.93262 19.9326C4.63732 20.1506 3.27171 19.7967 2.20703 19.0361C1.15226 18.2719 0.458515 17.1077 0.288086 15.8164C0.113166 14.5641 0.442138 13.1837 1.24414 12.1953C2.07117 11.176 3.35536 10.5615 4.65137 10.4258C5.92472 10.3018 7.19533 10.6901 8.18164 11.5049C9.44252 12.5611 9.80604 13.8738 9.95898 15.4385C11.3012 16.2614 12.8387 16.8961 14.2373 17.6309C16.0569 15.4798 17.3869 14.8019 20.0391 13.9844L20.041 9.51172C19.5663 9.32173 19.0924 9.09019 18.6787 8.78613C17.6323 8.01209 16.9451 6.84614 16.7754 5.55566C16.6185 4.2718 16.9808 2.97813 17.7822 1.96289C18.6582 0.864085 19.8293 0.36333 21.1875 0.183594ZM27.0352 22.4326C26.7654 19.3558 24.0625 17.0739 20.9844 17.3242C17.8788 17.577 15.5727 20.3096 15.8447 23.4131C16.117 26.5177 18.8636 28.8071 21.9658 28.5156C25.0406 28.2258 27.3049 25.5091 27.0352 22.4326Z" fill="white"/>
<path d="M131.888 15.4453C132.802 15.4465 133.716 15.4591 134.631 15.4824L134.627 20.3164C135.331 19.7685 136.098 19.3608 136.991 19.2275C138.197 19.0451 139.425 19.3571 140.397 20.0928C141.571 20.98 142.186 22.4732 142.364 23.9004C142.591 25.711 142.167 27.4521 141.049 28.8955C140.308 29.6109 139.417 30.1112 138.392 30.2793C136.886 30.5266 135.693 29.9991 134.519 29.123L134.515 30.1797L131.889 30.1748L131.888 15.4453ZM136.59 21.7803C135.774 22.0512 135.207 22.4383 134.81 23.2236C134.368 24.0949 134.337 25.171 134.682 26.0791C134.945 26.7747 135.438 27.3768 136.125 27.6865C136.623 27.9121 137.094 27.9188 137.63 27.8867C138.481 27.5648 139.055 27.1522 139.44 26.2998C139.843 25.4096 139.835 24.3362 139.454 23.4404C139.161 22.7514 138.639 22.1966 137.935 21.9238C137.495 21.754 137.053 21.7312 136.59 21.7803Z" fill="white"/>
<path d="M53.3105 15.4177C54.9198 20.3776 56.9784 25.2026 58.5479 30.1765L55.582 30.1794C55.2344 29.1174 54.8987 27.916 54.3682 26.9343C54.0214 26.7861 53.6109 26.8358 53.2402 26.8405C51.8097 26.8547 50.3786 26.8504 48.9482 26.8259C48.4991 27.9218 48.1388 29.0494 47.7832 30.1784L44.7617 30.1755C46.3394 25.2242 48.2208 20.3359 49.9238 15.4235C51.0505 15.448 52.1833 15.4222 53.3105 15.4177ZM51.6191 19.0837C50.9946 20.859 50.4131 22.6589 49.7295 24.4118L51.9014 24.4108L53.5879 24.3923C53.3509 23.7249 51.9731 19.3783 51.6191 19.0837Z" fill="white"/>
<path d="M115.844 15.4492L118.68 15.4662C118.642 18.8856 118.672 22.3098 118.671 25.7289C118.67 27.1402 118.814 28.6827 118.655 30.075L118.499 30.1817H115.841L115.835 23.8674C113.71 23.8079 111.569 23.8607 109.443 23.8636L109.444 30.1845L106.59 30.1789L106.601 15.4532L109.444 15.4598L109.445 21.4809H115.848L115.844 15.4492Z" fill="white"/>
<path d="M120.386 19.5309C121.327 19.5578 122.271 19.5479 123.212 19.5531C123.201 21.058 122.963 25.2154 123.328 26.4595C123.471 26.9504 123.758 27.3998 124.223 27.6386C124.921 27.9973 125.631 27.7896 126.325 27.5461C126.633 27.2025 126.897 26.8806 127.049 26.4369C127.547 24.986 127.281 21.2619 127.273 19.5358C128.17 19.5598 129.07 19.541 129.967 19.5364C129.946 20.5701 129.963 21.6074 129.961 22.6421L129.975 30.177C129.094 30.1902 128.212 30.1836 127.331 30.1572L127.25 30.0618C127.263 29.8381 127.266 29.6559 127.226 29.4331C126.4 29.7909 125.665 30.3337 124.726 30.3526C123.636 30.3743 122.454 30.0363 121.673 29.2528C121.08 28.66 120.718 27.8623 120.532 27.0533C120.132 25.3126 120.368 21.4573 120.386 19.5309Z" fill="white"/>
<path d="M82.2608 19.2343C83.6674 19.1241 85.1334 19.2235 86.27 20.171C87.0667 20.8344 87.3244 21.6311 87.4103 22.6213L84.8681 22.6185C84.7218 22.3466 84.5755 22.0313 84.3461 21.8189C83.9798 21.481 83.4493 21.3054 82.9537 21.3318C82.5686 21.3526 82.0768 21.5065 81.837 21.8321C81.6916 22.0304 81.6114 22.2343 81.6671 22.4816C81.9559 23.7852 85.2703 23.6238 86.3257 24.3139C86.9968 24.7538 87.5123 25.542 87.6614 26.3284C87.8106 27.1326 87.6189 27.9634 87.1337 28.6213C86.3238 29.7381 85.0758 30.1393 83.7769 30.3384C82.5742 30.4111 81.18 30.0883 80.2171 29.3557C79.3146 28.6685 78.9899 27.8255 78.8672 26.7399C79.7234 26.7418 80.5805 26.7333 81.4367 26.7163C81.4868 26.8778 81.5425 27.0335 81.6236 27.1827C81.9965 27.8708 82.7413 28.0238 83.4314 28.2267C83.8873 28.1219 84.5047 28.0049 84.8285 27.6367C85.0239 27.414 85.0919 27.0279 85.0097 26.7447C84.6935 25.6553 81.5179 25.5269 80.4163 24.8491C79.764 24.447 79.2844 23.8617 79.1107 23.1065C78.954 22.4221 79.0135 21.6528 79.3987 21.0533C80.0934 19.9681 81.0525 19.5225 82.2608 19.2343Z" fill="white"/>
<path d="M99.3682 19.2313C100.169 19.1664 100.953 19.1708 101.734 19.3819C102.634 19.6257 103.591 20.1287 104.046 20.9816C104.265 21.3904 104.433 22.1257 104.285 22.5798C103.556 22.7374 102.665 22.6308 101.915 22.6223C101.805 22.2513 101.711 21.9653 101.41 21.7085C101.029 21.3894 100.533 21.2384 100.038 21.2922C99.6514 21.3318 99.1539 21.5225 98.9378 21.869C98.8084 22.0757 98.7556 22.2881 98.8368 22.526C99.305 23.9052 102.111 23.5776 103.203 24.2006C103.898 24.598 104.479 25.2966 104.676 26.0782C104.889 26.9174 104.748 27.8501 104.264 28.5722C103.541 29.6503 102.392 30.0562 101.18 30.2913C99.9894 30.4385 98.6111 30.1855 97.6162 29.4992C96.5948 28.795 96.288 27.9115 96.0586 26.7569L98.6074 26.7381C98.7622 27.1279 98.9028 27.4319 99.2332 27.7019C99.6731 28.0625 100.195 28.2258 100.763 28.1503C101.202 28.0918 101.636 27.8897 101.899 27.5216C102.071 27.2799 102.157 26.9863 102.075 26.6928C101.756 25.559 98.9416 25.6298 97.8248 25.0285C97.0706 24.6216 96.473 23.9457 96.2342 23.116C96.0312 22.4136 96.1162 21.6821 96.4872 21.0505C97.1036 20.0045 98.2345 19.4928 99.3682 19.2313Z" fill="white"/>
<path d="M67.9941 16.6075C68.8399 16.6367 69.6923 16.6186 70.5391 16.6223C70.5296 17.5777 70.5438 18.5333 70.5806 19.4882L73.0916 19.4897L73.0859 21.6782L70.6948 21.6773C70.6958 23.0546 70.3805 26.6078 71.0129 27.6716C71.5067 28.0606 72.4922 27.9152 73.0916 27.9086L73.0831 29.722C73.0888 29.9089 73.0878 30.0033 72.9925 30.1666C72.6583 30.3271 72.3157 30.3629 71.9466 30.3658C70.9752 30.3743 69.6338 30.1987 68.9352 29.4709C67.5324 28.0105 67.9808 23.7135 67.9874 21.6754L66.3672 21.6782L66.372 19.4847L67.9856 19.4956L67.9941 16.6075Z" fill="white"/>
<path d="M89.823 16.5954L92.3208 16.6098C92.3019 17.5668 92.3415 18.5283 92.3595 19.4854L94.9111 19.4803L94.9073 21.6792L92.5058 21.6773C92.535 22.9885 92.2141 26.6502 92.8079 27.6414C93.446 28.0228 94.2455 27.9208 94.963 27.919C94.9545 28.5505 94.9668 29.1839 94.9696 29.8164L94.9394 30.0562C94.6921 30.3176 94.3116 30.3063 93.9746 30.3148C92.9485 30.3393 91.5316 30.177 90.7877 29.3982C89.3991 27.9444 89.8314 23.7078 89.8437 21.6763L88.1351 21.6773C88.1134 20.9495 88.1219 20.2193 88.1162 19.4915L89.8182 19.5003L89.823 16.5954Z" fill="white"/>
<path d="M35.9353 14.9596C36.0666 14.9531 36.194 14.9512 36.3247 14.9701C36.733 15.0293 37.1353 15.2265 37.3601 15.5849C37.5987 15.9653 37.6314 16.4717 37.664 16.9123C37.8259 19.0927 37.7056 21.361 37.7051 23.5492C37.7046 25.3362 37.9027 27.7594 37.5708 29.4803C37.4664 30.0212 37.1077 30.2799 36.6782 30.5725C36.5146 30.5923 36.3434 30.615 36.1784 30.6055C35.8097 30.5848 35.4606 30.4205 35.2222 30.1392C34.9865 29.8607 34.9933 29.3019 34.9724 28.9526C34.8226 26.4444 34.9493 23.856 34.9516 21.3403C34.9529 19.9107 34.7563 17.1741 35.0569 15.8983C35.1644 15.4418 35.5758 15.2026 35.9353 14.9596Z" fill="white"/>
<path d="M64.8966 19.4499L65.2555 19.4457C65.6809 19.9213 65.4697 21.4281 65.4561 22.0521C64.5572 22.0427 63.7071 22.0068 63.0028 22.66C61.6815 23.8853 62.127 28.3759 62.1139 30.178C61.4056 30.1714 60.0259 30.43 59.4848 29.9797L59.4566 29.5332C59.4695 26.1934 59.3855 22.8564 59.4068 19.5171C60.2642 19.5438 61.1245 19.5256 61.9824 19.521L61.9522 20.9958C62.1113 20.7674 62.2694 20.5228 62.454 20.3146C63.104 19.5813 63.9857 19.5149 64.8966 19.4499Z" fill="white"/>
<path d="M74.6525 19.4941L77.3466 19.4951L77.3532 30.1837L74.6279 30.1799L74.6525 19.4941Z" fill="white"/>
<path d="M32.1705 18.462C32.6128 18.5435 33.0042 18.7098 33.262 19.094C33.6596 19.6867 33.6704 25.4939 33.4712 26.3227C33.3623 26.7758 32.9702 26.9967 32.5986 27.2148C32.1729 27.1893 31.6134 27.1515 31.3292 26.7824C30.9062 26.2339 30.9412 20.062 31.182 19.2881C31.3219 18.8383 31.7843 18.6482 32.1705 18.462Z" fill="white"/>
<path d="M75.8227 15.0903C76.6232 14.9962 77.3539 15.5557 77.4709 16.353C77.5889 17.1504 77.0508 17.8967 76.2579 18.0378C75.7226 18.1327 75.1789 17.9295 74.8381 17.5072C74.4964 17.0851 74.4124 16.5107 74.6172 16.0079C74.8221 15.5052 75.2837 15.1537 75.8227 15.0903Z" fill="white"/>
</svg>
