<svg aria-hidden="true" style="position: absolute; width: 0; height: 0; overflow: hidden;" version="1.1" xmlns="http://www.w3.org/2000/svg" xmlns:xlink="http://www.w3.org/1999/xlink">
<defs>
<symbol id="icon-logo-icon-1" viewBox="0 0 32 32">
<path d="M17.285 3.286c0.38-0.041 0.82 0.039 1.185 0.142 0.827 0.235 1.499 0.738 1.898 1.456 0.415 0.736 0.494 1.596 0.221 2.387-0.347 0.976-1.092 1.466-2.022 1.917l0.010 2.845c0.665 0.189 1.311 0.403 1.915 0.729 1.387 0.749 2.336 2.012 2.733 3.449 0.42 1.507 0.181 3.109-0.665 4.452-0.776 1.218-2.014 2.117-3.495 2.461-1.935 0.451-3.576-0.037-5.24-0.959-0.735 0.732-1.462 1.473-2.179 2.222 0.321 0.704 0.427 1.444 0.214 2.192-0.208 0.732-0.758 1.359-1.462 1.73-0.789 0.416-1.688 0.492-2.552 0.261-0.858-0.229-1.58-0.724-1.999-1.469-0.413-0.732-0.448-1.589-0.18-2.371 0.305-0.888 0.925-1.435 1.797-1.841 0.939-0.342 1.715-0.23 2.631 0.078 0.763-0.748 1.481-1.534 2.252-2.275-0.847-1.548-1.121-2.866-0.681-4.572-0.959-0.417-1.884-0.903-2.843-1.321-0.513 0.497-1.139 0.838-1.875 0.954-0.878 0.138-1.803-0.085-2.525-0.566-0.715-0.483-1.185-1.218-1.301-2.033-0.119-0.791 0.105-1.662 0.648-2.286 0.56-0.644 1.43-1.032 2.309-1.117 0.863-0.078 1.724 0.167 2.392 0.681 0.855 0.667 1.101 1.496 1.205 2.484 0.91 0.52 1.951 0.92 2.899 1.384 1.233-1.358 2.134-1.787 3.931-2.303l0.002-2.824c-0.322-0.12-0.643-0.266-0.923-0.458-0.709-0.489-1.174-1.225-1.289-2.040-0.106-0.811 0.139-1.628 0.682-2.269 0.594-0.694 1.387-1.010 2.308-1.123zM21.247 17.332c-0.183-1.943-2.014-3.383-4.1-3.225-2.104 0.159-3.668 1.885-3.483 3.844s2.046 3.406 4.149 3.221c2.083-0.183 3.618-1.898 3.435-3.841z"></path>
<path d="M27.276 12.615c0.089-0.004 0.175-0.005 0.264 0.007 0.277 0.037 0.549 0.162 0.702 0.388 0.162 0.24 0.184 0.56 0.206 0.838 0.11 1.377 0.028 2.809 0.028 4.19-0 1.128 0.134 2.658-0.091 3.745-0.071 0.342-0.314 0.505-0.605 0.69-0.111 0.012-0.227 0.027-0.339 0.021-0.25-0.013-0.486-0.117-0.648-0.294-0.16-0.176-0.155-0.529-0.169-0.749-0.102-1.584-0.016-3.218-0.014-4.806 0.001-0.903-0.132-2.63 0.071-3.436 0.073-0.288 0.352-0.439 0.595-0.593z"></path>
<path d="M24.727 14.827c0.3 0.051 0.565 0.156 0.74 0.399 0.269 0.374 0.277 4.041 0.142 4.564-0.074 0.286-0.339 0.426-0.591 0.563-0.288-0.016-0.668-0.040-0.86-0.273-0.287-0.346-0.263-4.243-0.1-4.732 0.095-0.284 0.408-0.404 0.67-0.522z"></path>
</symbol>
</defs>
</svg>
