<svg width="27" height="31" viewBox="0 0 27 31" fill="none" xmlns="http://www.w3.org/2000/svg">
<path d="M15.709 0.0131626C16.1291 -0.0351751 16.6159 0.0588263 17.0205 0.182108C17.9363 0.461057 18.6805 1.05882 19.1221 1.9116C19.5809 2.78571 19.6689 3.80789 19.3663 4.74754C18.982 5.90615 18.158 6.4884 17.1289 7.0239L17.1407 10.4038C17.8762 10.6281 18.592 10.8829 19.2598 11.27C20.7947 12.1599 21.845 13.6604 22.2852 15.3677C22.7504 17.1579 22.4852 19.0601 21.5489 20.6557C20.6899 22.1022 19.3203 23.1713 17.6807 23.5805C15.539 24.1157 13.7227 23.5353 11.8819 22.4409C11.0681 23.311 10.2642 24.1913 9.47074 25.0805C9.82538 25.9172 9.94221 26.795 9.70707 27.6841C9.47714 28.5534 8.86807 29.2984 8.08891 29.7387C7.21577 30.2329 6.22095 30.3232 5.26371 30.0493C4.31373 29.7774 3.51512 29.1885 3.05082 28.3042C2.594 27.4348 2.55535 26.4158 2.8516 25.4878C3.18872 24.4331 3.8757 23.7833 4.84086 23.3012C5.87954 22.895 6.73808 23.0288 7.75199 23.394C8.59635 22.5055 9.3921 21.5726 10.2452 20.6919C9.30762 18.8533 9.00393 17.2871 9.49125 15.2612C8.42983 14.7657 7.40585 14.1882 6.34379 13.6919C5.77638 14.2825 5.08303 14.6876 4.26859 14.8247C3.29709 14.9882 2.27222 14.7232 1.47367 14.1528C0.682606 13.5796 0.162036 12.7063 0.0342198 11.7378C-0.0969713 10.7985 0.150482 9.76322 0.751993 9.02195C1.37221 8.25758 2.33481 7.79667 3.30668 7.6948C4.26176 7.60177 5.21534 7.89323 5.95512 8.50437C6.90064 9.29654 7.17345 10.2811 7.28813 11.4546C8.29476 12.0718 9.44722 12.548 10.4961 13.0991C11.8609 11.4857 12.8585 10.9769 14.8477 10.3637L14.8496 7.00926C14.4935 6.86674 14.1375 6.69342 13.8272 6.46531C13.0425 5.88484 12.5278 5.01019 12.4004 4.04246C12.2828 3.07952 12.5542 2.10859 13.1553 1.34715C13.8122 0.52316 14.6904 0.147955 15.709 0.0131626ZM20.0957 16.6997C19.8933 14.3921 17.8653 12.6809 15.5567 12.8686C13.2277 13.0583 11.4983 15.1075 11.7022 17.435C11.9064 19.7635 13.9663 21.4808 16.293 21.2622C18.5991 21.0448 20.2981 19.007 20.0957 16.6997Z" fill="white"/>
<path d="M23.2936 9.23467C23.3921 9.22979 23.4877 9.22837 23.5857 9.24253C23.8919 9.28692 24.1936 9.43482 24.3623 9.70365C24.5412 9.9889 24.5657 10.3687 24.5902 10.6992C24.7116 12.3345 24.6214 14.0357 24.621 15.6768C24.6206 17.0171 24.7692 18.8345 24.5203 20.1252C24.442 20.5308 24.173 20.7248 23.8508 20.9443C23.7281 20.9592 23.5997 20.9762 23.4759 20.9691C23.1995 20.9535 22.9376 20.8303 22.7588 20.6194C22.582 20.4105 22.5871 19.9914 22.5715 19.7294C22.4591 17.8483 22.5541 15.9069 22.5558 14.0201C22.5568 12.948 22.4094 10.8955 22.6348 9.93863C22.7155 9.59631 23.024 9.41691 23.2936 9.23467Z" fill="white"/>
<path d="M25.5389 11.8187C25.8706 11.8799 26.1642 12.0046 26.3575 12.2927C26.6557 12.7373 26.6638 17.0926 26.5144 17.7142C26.4327 18.0541 26.1387 18.2197 25.8599 18.3833C25.5407 18.3642 25.1211 18.3359 24.9079 18.059C24.5907 17.6477 24.6169 13.0188 24.7975 12.4383C24.9025 12.101 25.2492 11.9584 25.5389 11.8187Z" fill="white"/>
</svg>
